<svg width="1389" height="350" viewBox="0 0 1389 350" fill="none" xmlns="http://www.w3.org/2000/svg">
<path d="M1036.77 114.31C1070.88 111.998 1100.45 137.673 1102.94 171.765C1105.43 205.857 1079.9 235.554 1045.82 238.217C1011.48 240.899 981.517 215.148 979.007 180.808C976.507 146.469 1002.41 116.641 1036.77 114.31ZM1088.8 168.536C1084.51 142.103 1059.58 124.172 1033.15 128.514C1006.8 132.844 988.917 157.687 993.196 184.044C997.476 210.401 1022.29 228.321 1048.66 224.098C1075.1 219.863 1093.09 194.969 1088.8 168.536Z" fill="#061628"/>
<path d="M728.991 116.404L746.297 116.462C746.528 156.408 746.54 196.355 746.334 236.302L733.631 236.234C710.12 208.491 685.833 176.733 662.616 148.196L662.592 236.254L645.453 236.302L645.44 116.414L659.329 116.486L728.927 203.216C729.302 174.474 729.006 145.186 728.991 116.404Z" fill="#061628"/>
<path d="M1135.62 116.439L1148.33 116.359C1173.08 148.583 1198.24 180.481 1223.82 212.046L1223.75 116.456L1237.3 116.402V236.233L1225.69 236.402C1201.89 205.107 1174.43 170.581 1149.43 140.201L1149.31 236.246L1135.62 236.271C1135.16 196.666 1135.61 156.118 1135.62 116.439Z" fill="#061628"/>
<path d="M156.989 116.44L192.579 116.285C213.608 116.264 232.439 117.403 248.14 133.182C270.869 156.023 270.558 197.188 247.719 219.762C227.852 239.398 201.368 236.377 175.923 236.187L156.964 236.318L157.004 219.656C193.326 219.806 246.43 228.579 246.861 176.806C247.194 136.775 216.934 132.604 186.622 132.656L156.959 132.765L156.989 116.44Z" fill="#061628"/>
<path d="M546.26 116.459L562.096 116.394C577.638 155.788 597.052 196.39 613.144 236.258L594.428 236.378C584.157 208.637 568.643 174.396 556.896 146.565L554.061 140.639C541.042 172.496 526.892 204.293 513.729 236.221L494.545 236.235L546.26 116.459Z" fill="#061628"/>
<path d="M52.262 116.388L67.514 116.453L119.285 236.123L100.239 236.313L61.865 145.234L60.561 142.31L59.44 141.888C53.493 153.792 48.216 167.553 43.035 179.923L19.088 236.268L0 236.337C15.857 196.876 35.669 156.033 52.262 116.388Z" fill="#061628"/>
<path d="M380.857 123.495C406.664 140.85 402.768 182.595 371.924 194.573L399.584 236.15L379.345 236.322L353.782 197.344L322.925 197.388L322.834 236.19L304.915 236.346L304.962 181.254C329.877 181.27 394.262 190.933 377.321 145.814C374.188 137.472 364.92 134.185 356.877 132.739C360.282 130.851 376.205 125.219 380.857 123.495Z" fill="#061628"/>
<path d="M812.207 0L822.877 0.0200043V349.294L812.197 349.311L812.207 0Z" fill="#1D84F5"/>
<path d="M1322.45 116.349L1336.23 116.327C1353.25 155.811 1372.79 196.51 1388.96 236.185L1374.4 236.39C1359.47 201.628 1344.36 166.949 1329.06 132.351L1314.28 166.1L1311.05 173.375L1283.39 236.327L1268.93 236.217L1298.61 169.624L1301.94 162.123L1322.45 116.349Z" fill="#061628"/>
<path d="M885.207 116.432L899.197 116.385L899.227 223.402L965.187 223.474C965.247 227.525 965.907 233.286 963.847 236.176C937.747 236.515 911.297 236.229 885.137 236.346L885.207 116.432Z" fill="#061628"/>
<path d="M439.873 116.438L457.816 116.375C457.543 156.302 458.142 196.321 457.586 236.244L440.045 236.272L439.873 116.438Z" fill="#061628"/>
<path d="M304.943 116.455C326.898 116.318 362.071 112.423 380.857 123.495C376.205 125.219 360.282 130.851 356.877 132.739C340.876 133.272 321.216 132.769 304.949 132.771L304.943 116.455Z" fill="#1D84F5"/>
</svg>
